<svg width="122" height="25" viewBox="0 0 122 25" fill="none" xmlns="http://www.w3.org/2000/svg">
<path d="M0 7.18334H7.1693V0L0 7.18334Z" fill="#1DBC86"/>
<path d="M2.59229 14.2732H13.3589V3.48975L2.59229 14.2732Z" fill="#1DBC86"/>
<path d="M5.13818 25H23.1162V7.01074L5.13818 25Z" fill="#1DBC86"/>
<path d="M43.271 18.9653C41.5516 20.6553 39.2371 21.6023 36.8262 21.6023C34.4153 21.6023 32.1009 20.6553 30.3814 18.9653C29.5242 18.1258 28.848 17.1196 28.3945 16.0088C27.941 14.898 27.7198 13.706 27.7445 12.5065C27.7201 11.3069 27.9415 10.1151 28.395 9.00433C28.8485 7.89355 29.5245 6.88735 30.3814 6.04764C32.1009 4.35764 34.4153 3.41064 36.8262 3.41064C39.2371 3.41064 41.5516 4.35764 43.271 6.04764C44.131 6.88558 44.8099 7.89121 45.2654 9.00222C45.7209 10.1132 45.9434 11.3059 45.9191 12.5065C45.9437 13.707 45.7214 14.8998 45.2658 16.0109C44.8103 17.122 44.1313 18.1275 43.271 18.9653ZM32.7937 16.6148C33.8785 17.6495 35.3201 18.2267 36.8192 18.2267C38.3183 18.2267 39.7599 17.6495 40.8447 16.6148C41.3831 16.0777 41.8053 15.4355 42.085 14.7283C42.3648 14.021 42.496 13.2638 42.4707 12.5037C42.4956 11.7415 42.3642 10.9823 42.0846 10.2728C41.805 9.56331 41.383 8.91862 40.8447 8.37843C39.7642 7.33537 38.321 6.75244 36.8192 6.75244C35.3174 6.75244 33.8742 7.33537 32.7937 8.37843C32.2559 8.91886 31.8345 9.56366 31.5553 10.2731C31.2762 10.9826 31.1452 11.7417 31.1705 12.5037C31.1446 13.2636 31.2754 14.0208 31.5546 14.728C31.8338 15.4353 32.2556 16.0775 32.7937 16.6148Z" fill="#1DBC86"/>
<path d="M56.569 8.74976H59.7928V21.2518H56.569V19.8477C55.7846 21.014 54.5424 21.5972 52.8425 21.5972C52.2131 21.6159 51.5868 21.5029 51.0036 21.2654C50.4204 21.028 49.8932 20.6714 49.4558 20.2184C48.5628 19.2992 48.1173 18.0317 48.1191 16.4161V8.74976H51.3429V16.0258C51.3429 16.8589 51.5676 17.4963 52.0169 17.9381C52.2575 18.1633 52.5407 18.3379 52.8498 18.4517C53.159 18.5656 53.4879 18.6163 53.817 18.6009C54.1862 18.6179 54.555 18.5578 54.8998 18.4244C55.2445 18.2909 55.5576 18.0871 55.8192 17.8258C56.319 17.3091 56.569 16.534 56.569 15.5006V8.74976Z" fill="#1DBC86"/>
<path d="M65.9655 10.9021C66.2312 10.1439 66.759 9.50547 67.4538 9.10207C68.1564 8.69812 68.9546 8.49055 69.765 8.50112V12.1012C68.8421 11.9719 67.9038 12.1857 67.1281 12.7022C66.353 13.2189 65.9655 14.0772 65.9655 15.2773V21.2531H62.7417V8.75104H65.9655V10.9021Z" fill="#1DBC86"/>
<path d="M78.3182 3.75202C79.1031 3.73401 79.8836 3.87528 80.6124 4.16728C81.3412 4.45929 82.0032 4.89597 82.5586 5.45097C83.1191 5.99008 83.5619 6.63942 83.8591 7.35809C84.1564 8.07676 84.3016 8.84919 84.2856 9.62674C84.3014 10.4043 84.1561 11.1766 83.8589 11.8953C83.5617 12.6139 83.119 13.2633 82.5586 13.8025C82.0028 14.357 81.3407 14.7933 80.612 15.0853C79.8833 15.3773 79.103 15.5188 78.3182 15.5015H75.2573V21.2526H71.792V3.75202H78.3182ZM78.3182 12.2749C78.659 12.2842 78.9978 12.2212 79.3124 12.09C79.6271 11.9588 79.9103 11.7625 80.1435 11.5138C80.3836 11.2629 80.5717 10.9671 80.697 10.6432C80.8223 10.3193 80.8824 9.97389 80.8737 9.62674C80.8854 9.27759 80.8274 8.92959 80.703 8.60314C80.5786 8.27669 80.3903 7.97835 80.1492 7.7256C79.9142 7.48 79.6303 7.28639 79.316 7.15725C79.0016 7.0281 78.6636 6.96629 78.3238 6.97581H75.2573V12.2749H78.3182Z" fill="#1DBC86"/>
<path d="M95.0731 8.74993H98.2885V21.252H95.0731V19.7749C94.1034 20.9936 92.7452 21.6021 90.9985 21.6002C90.1885 21.6067 89.3866 21.4394 88.6468 21.1095C87.9071 20.7796 87.2467 20.2948 86.7104 19.6878C85.5204 18.4219 84.8776 16.7378 84.9215 15.0009C84.8776 13.2641 85.5204 11.58 86.7104 10.3141C87.2455 9.70856 87.904 9.2246 88.6417 8.89474C89.3794 8.56488 90.1792 8.39678 90.9872 8.40172C92.7358 8.40172 94.094 9.00922 95.0619 10.2242L95.0731 8.74993ZM89.1226 17.5367C89.4437 17.8648 89.8293 18.1228 90.2552 18.2944C90.681 18.466 91.1377 18.5474 91.5966 18.5336C92.0561 18.5454 92.513 18.463 92.9395 18.2915C93.3659 18.1201 93.7527 17.8632 94.0762 17.5367C94.404 17.2047 94.6607 16.8094 94.8307 16.3748C95.0006 15.9403 95.0803 15.4757 95.0647 15.0094C95.0796 14.5431 94.9997 14.0787 94.8298 13.6443C94.6599 13.2098 94.4035 12.8144 94.0762 12.482C93.7508 12.1565 93.3622 11.9011 92.9342 11.7316C92.5063 11.5621 92.0482 11.482 91.5882 11.4963C91.1302 11.4816 90.6741 11.5615 90.2484 11.7311C89.8227 11.9007 89.4365 12.1564 89.1142 12.482C88.79 12.816 88.5365 13.212 88.3691 13.6463C88.2017 14.0806 88.1236 14.5442 88.1397 15.0094C88.1241 15.4752 88.2031 15.9394 88.3721 16.3738C88.541 16.8082 88.7963 17.2039 89.1226 17.5367Z" fill="#1DBC86"/>
<path d="M104.094 12.299C104.094 12.6332 104.313 12.9056 104.757 13.1134C105.275 13.3516 105.814 13.5397 106.368 13.675C107.013 13.8359 107.647 14.0357 108.267 14.2732C108.907 14.5197 109.466 14.9398 109.881 15.4863C110.337 16.0994 110.571 16.8489 110.544 17.6121C110.572 18.1868 110.454 18.7592 110.203 19.2768C109.952 19.7945 109.575 20.2407 109.106 20.5748C108.051 21.2941 106.794 21.6572 105.518 21.611C102.951 21.611 101.201 20.6197 100.269 18.6371L103.077 17.0617C103.442 18.1457 104.259 18.6877 105.526 18.6877C106.677 18.6877 107.25 18.3282 107.25 17.6121C107.25 17.278 107.031 17.0084 106.587 16.7978C106.068 16.563 105.528 16.3751 104.976 16.2361C104.324 16.0636 103.683 15.8517 103.058 15.6015C102.425 15.3526 101.869 14.9432 101.443 14.4136C100.99 13.833 100.756 13.111 100.783 12.3749C100.76 11.8158 100.871 11.2594 101.108 10.7525C101.345 10.2457 101.701 9.80333 102.145 9.46277C103.12 8.73285 104.315 8.35828 105.532 8.40128C106.5 8.3889 107.455 8.6248 108.306 9.08648C109.132 9.54572 109.813 10.2266 110.272 11.0522L107.551 12.549C107.39 12.1562 107.111 11.8229 106.753 11.5947C106.395 11.3664 105.975 11.2544 105.551 11.2741C105.186 11.262 104.825 11.3598 104.515 11.5549C104.386 11.6316 104.28 11.7405 104.206 11.871C104.132 12.0016 104.093 12.1491 104.094 12.299Z" fill="#1DBC86"/>
<path d="M114.946 12.2994C114.946 12.6336 115.168 12.906 115.609 13.1138C116.128 13.3515 116.669 13.5396 117.224 13.6754C117.868 13.8363 118.502 14.0361 119.122 14.2736C119.762 14.5195 120.321 14.9397 120.734 15.4867C121.191 16.0987 121.425 16.849 121.397 17.6125C121.425 18.1873 121.308 18.7599 121.056 19.2776C120.805 19.7953 120.428 20.2415 119.959 20.5751C118.905 21.2948 117.648 21.6579 116.373 21.6114C113.806 21.6114 112.056 20.6201 111.122 18.6375L113.93 17.0621C114.304 18.1461 115.121 18.688 116.381 18.688C117.531 18.688 118.106 18.3295 118.106 17.6125C118.106 17.2783 117.884 17.0087 117.443 16.7981C116.923 16.5634 116.384 16.3754 115.831 16.2365C115.185 16.0669 114.55 15.8587 113.93 15.6131C113.298 15.3641 112.743 14.9547 112.318 14.4252C111.864 13.845 111.629 13.1229 111.655 12.3865C111.632 11.8275 111.744 11.2712 111.981 10.7645C112.218 10.2577 112.573 9.81526 113.017 9.47439C113.993 8.74507 115.189 8.37061 116.407 8.41289C117.375 8.40052 118.33 8.63642 119.181 9.09809C120.007 9.55673 120.688 10.2377 121.147 11.0638L118.398 12.5634C118.236 12.1706 117.958 11.8373 117.6 11.6091C117.242 11.3809 116.822 11.2689 116.398 11.2885C116.032 11.2764 115.67 11.3742 115.359 11.5693C115.234 11.6458 115.13 11.753 115.058 11.8808C114.986 12.0085 114.947 12.1526 114.946 12.2994Z" fill="#1DBC86"/>
</svg>
